<svg width="1600" height="320" viewBox="0 0 1600 320" fill="none" xmlns="http://www.w3.org/2000/svg">
  <defs>
    <linearGradient id="bg" x1="0" y1="0" x2="1600" y2="320" gradientUnits="userSpaceOnUse">
      <stop offset="0" stop-color="#431407"/>
      <stop offset="0.52" stop-color="#b45309"/>
      <stop offset="1" stop-color="#f97316"/>
    </linearGradient>
  </defs>

  <rect width="1600" height="320" rx="26" fill="url(#bg)"/>
  <circle cx="1340" cy="64" r="118" fill="#fde68a" opacity="0.14"/>
  <circle cx="1480" cy="286" r="140" fill="#fdba74" opacity="0.14"/>

  <text x="72" y="94" fill="#fff7ed" font-size="62" font-family="Arial, sans-serif" font-weight="800">BRAINSAUDIOS</text>
  <text x="72" y="148" fill="#ffedd5" font-size="48" font-family="Arial, sans-serif" font-weight="700">High Quality Audio Products</text>
  <text x="72" y="198" fill="#ffedd5" font-size="26" font-family="Arial, sans-serif">Tone Control | MP3 Modules</text>
  <text x="72" y="236" fill="#ffedd5" font-size="20" font-family="Arial, sans-serif">Carefully sourced electronics for reliable, clear sound systems</text>

  <rect x="72" y="256" width="300" height="52" rx="14" fill="#f59e0b"/>
  <text x="144" y="291" fill="#111827" font-size="40" font-family="Arial, sans-serif" font-weight="800">Shop Now</text>

  <rect x="980" y="74" width="210" height="220" rx="20" fill="#0f172a" stroke="#38bdf8" stroke-width="5"/>
  <rect x="1034" y="120" width="102" height="64" rx="10" fill="#0b132b" stroke="#475569" stroke-width="3"/>
  <rect x="1020" y="202" width="130" height="76" rx="10" fill="#0b132b" stroke="#475569" stroke-width="3"/>
  <circle cx="1044" cy="244" r="11" fill="#22d3ee"/>
  <circle cx="1088" cy="244" r="11" fill="#22d3ee"/>
  <circle cx="1132" cy="244" r="11" fill="#22d3ee"/>

  <rect x="1256" y="90" width="230" height="204" rx="20" fill="#0f172a" stroke="#f59e0b" stroke-width="5"/>
  <circle cx="1371" cy="142" r="36" fill="#0f172a" stroke="#f59e0b" stroke-width="6"/>
  <circle cx="1371" cy="142" r="12" fill="#fb923c"/>
  <circle cx="1371" cy="226" r="28" fill="#0f172a" stroke="#f59e0b" stroke-width="6"/>
  <circle cx="1371" cy="226" r="9" fill="#fb923c"/>
</svg>
