<svg width="1200" height="1200" viewBox="0 0 1200 1200" fill="none" xmlns="http://www.w3.org/2000/svg">
  <defs>
    <linearGradient id="bg" x1="0" y1="0" x2="1200" y2="1200" gradientUnits="userSpaceOnUse">
      <stop offset="0" stop-color="#f4f7fb"/>
      <stop offset="0.58" stop-color="#dce7f2"/>
      <stop offset="1" stop-color="#b5c8d9"/>
    </linearGradient>
    <linearGradient id="trace" x1="0" y1="0" x2="1" y2="1">
      <stop offset="0" stop-color="#12324f"/>
      <stop offset="1" stop-color="#23517e"/>
    </linearGradient>
    <linearGradient id="board" x1="0" y1="0" x2="1" y2="1">
      <stop offset="0" stop-color="#27b55d"/>
      <stop offset="1" stop-color="#0e8e47"/>
    </linearGradient>
  </defs>

  <rect width="1200" height="1200" fill="url(#bg)"/>
  <path d="M0 336H344L474 210H1200" stroke="url(#trace)" stroke-width="30"/>
  <path d="M0 754H310L432 624H1200" stroke="url(#trace)" stroke-width="30"/>
  <path d="M0 388H320L444 264H1200" stroke="#e48f2f" stroke-width="5"/>
  <path d="M0 806H286L410 678H1200" stroke="#e48f2f" stroke-width="5"/>

  <text x="64" y="108" fill="#0b1320" font-size="54" font-family="Arial, sans-serif" font-weight="700">UNLEASH PREMIUM AUDIO CONTROL</text>
  <text x="48" y="198" fill="#05070a" font-size="84" font-family="Arial, sans-serif" font-weight="800">BRAINS DC TONE</text>
  <text x="54" y="258" fill="#10151d" font-size="58" font-family="Arial, sans-serif" font-weight="700">DC CONTROL</text>

  <g transform="translate(250 318)">
    <rect x="60" y="36" width="650" height="430" rx="26" fill="url(#board)" stroke="#0e7b42" stroke-width="10"/>
    <rect x="356" y="82" width="118" height="150" rx="12" fill="#1a2634"/>
    <rect x="108" y="220" width="56" height="92" rx="8" fill="#f3f6f9"/>
    <rect x="406" y="270" width="178" height="50" rx="10" fill="#f3f6f9"/>
    <rect x="150" y="152" width="42" height="96" rx="10" fill="#5a78c9"/>
    <rect x="206" y="152" width="42" height="96" rx="10" fill="#5a78c9"/>
    <rect x="532" y="112" width="42" height="104" rx="10" fill="#5a78c9"/>
    <rect x="584" y="112" width="42" height="104" rx="10" fill="#5a78c9"/>
    <rect x="668" y="214" width="16" height="120" rx="8" fill="#1f2630"/>
    <circle cx="116" cy="96" r="18" fill="#253649"/>
    <circle cx="652" cy="96" r="18" fill="#253649"/>
    <circle cx="116" cy="408" r="18" fill="#253649"/>
    <circle cx="652" cy="408" r="18" fill="#253649"/>

    <rect x="232" y="112" width="96" height="22" rx="6" fill="#dbe6ef"/>
    <rect x="232" y="154" width="96" height="22" rx="6" fill="#dbe6ef"/>
    <rect x="232" y="196" width="96" height="22" rx="6" fill="#dbe6ef"/>
    <rect x="232" y="238" width="96" height="22" rx="6" fill="#dbe6ef"/>
    <rect x="494" y="242" width="66" height="66" rx="8" fill="#16784b"/>
  </g>

  <text x="90" y="1014" fill="#0d1824" font-size="42" font-family="Arial, sans-serif" font-weight="700">Ultra-low noise floor • Extended bass &amp; treble range</text>
  <text x="122" y="1074" fill="#0d1824" font-size="42" font-family="Arial, sans-serif" font-weight="700">Compact board • Precision DSP control • Multi-stage DC filtering</text>
</svg>
