<svg width="1600" height="320" viewBox="0 0 1600 320" fill="none" xmlns="http://www.w3.org/2000/svg">
  <defs>
    <linearGradient id="bg" x1="0" y1="0" x2="1600" y2="320" gradientUnits="userSpaceOnUse">
      <stop offset="0" stop-color="#4a044e"/>
      <stop offset="0.52" stop-color="#be185d"/>
      <stop offset="1" stop-color="#ec4899"/>
    </linearGradient>
    <linearGradient id="cta" x1="0" y1="0" x2="1" y2="1">
      <stop offset="0" stop-color="#f59e0b"/>
      <stop offset="1" stop-color="#f97316"/>
    </linearGradient>
  </defs>

  <rect width="1600" height="320" rx="26" fill="url(#bg)"/>
  <circle cx="1290" cy="66" r="120" fill="#f9a8d4" opacity="0.16"/>
  <circle cx="1470" cy="286" r="144" fill="#f5d0fe" opacity="0.16"/>

  <text x="72" y="94" fill="#fdf2f8" font-size="58" font-family="Arial, sans-serif" font-weight="800">CRAZYAUDIOS FLEA MARKET</text>
  <text x="72" y="146" fill="#fce7f3" font-size="34" font-family="Arial, sans-serif" font-weight="700">Big bargains on audio components</text>
  <text x="72" y="194" fill="#fbcfe8" font-size="24" font-family="Arial, sans-serif">Amplifiers | ICs | Woofers | Tone Controls</text>
  <text x="72" y="234" fill="#fde68a" font-size="21" font-family="Arial, sans-serif" font-weight="700">Your soldering iron called... it wants more parts.</text>

  <rect x="72" y="256" width="292" height="52" rx="14" fill="url(#cta)"/>
  <text x="128" y="291" fill="#111827" font-size="38" font-family="Arial, sans-serif" font-weight="800">Grab Deals</text>

  <rect x="1120" y="76" width="210" height="218" rx="20" fill="#0f172a" stroke="#f59e0b" stroke-width="5"/>
  <circle cx="1225" cy="126" r="34" fill="#0f172a" stroke="#f59e0b" stroke-width="6"/>
  <circle cx="1225" cy="126" r="12" fill="#fb923c"/>
  <circle cx="1225" cy="208" r="26" fill="#0f172a" stroke="#f59e0b" stroke-width="6"/>
  <circle cx="1225" cy="208" r="9" fill="#fb923c"/>

  <rect x="1340" y="90" width="230" height="204" rx="20" fill="#111827" stroke="#22d3ee" stroke-width="5"/>
  <rect x="1394" y="132" width="122" height="66" rx="10" fill="#0f172a" stroke="#475569" stroke-width="3"/>
  <rect x="1380" y="212" width="150" height="66" rx="10" fill="#0f172a" stroke="#475569" stroke-width="3"/>
  <circle cx="1408" cy="246" r="10" fill="#22d3ee"/>
  <circle cx="1454" cy="246" r="10" fill="#22d3ee"/>
  <circle cx="1500" cy="246" r="10" fill="#22d3ee"/>
</svg>
