<svg width="1200" height="500" viewBox="0 0 1200 500" fill="none" xmlns="http://www.w3.org/2000/svg">
  <defs>
    <linearGradient id="bg2" x1="0" y1="0" x2="1200" y2="500" gradientUnits="userSpaceOnUse">
      <stop offset="0" stop-color="#e2e8f0"/>
      <stop offset="1" stop-color="#cbd5e1"/>
    </linearGradient>
    <linearGradient id="chip" x1="0" y1="0" x2="1" y2="1">
      <stop offset="0" stop-color="#0f172a"/>
      <stop offset="1" stop-color="#1e293b"/>
    </linearGradient>
  </defs>
  <rect width="1200" height="500" rx="24" fill="url(#bg2)"/>
  <circle cx="140" cy="120" r="130" fill="#dbeafe" opacity="0.85"/>
  <circle cx="1080" cy="390" r="150" fill="#bfdbfe" opacity="0.75"/>

  <text x="60" y="96" fill="#1e293b" font-size="54" font-family="Arial, sans-serif" font-weight="700">Build Better Audio Projects</text>
  <text x="60" y="148" fill="#334155" font-size="28" font-family="Arial, sans-serif">Trusted components for makers and professionals.</text>

  <rect x="60" y="188" width="260" height="64" rx="12" fill="#111827"/>
  <text x="95" y="230" fill="#f8fafc" font-size="30" font-family="Arial, sans-serif" font-weight="700">Explore Store</text>

  <rect x="680" y="120" width="360" height="250" rx="16" fill="url(#chip)" stroke="#334155" stroke-width="5"/>
  <rect x="750" y="170" width="220" height="150" rx="10" fill="#0b1220" stroke="#475569" stroke-width="3"/>
  <text x="795" y="250" fill="#fb923c" font-size="34" font-family="Arial, sans-serif" font-weight="700">LM3886</text>
  <text x="812" y="286" fill="#94a3b8" font-size="21" font-family="Arial, sans-serif">Power IC</text>

  <rect x="690" y="385" width="16" height="40" rx="4" fill="#64748b"/>
  <rect x="725" y="385" width="16" height="40" rx="4" fill="#64748b"/>
  <rect x="760" y="385" width="16" height="40" rx="4" fill="#64748b"/>
  <rect x="945" y="385" width="16" height="40" rx="4" fill="#64748b"/>
  <rect x="980" y="385" width="16" height="40" rx="4" fill="#64748b"/>
  <rect x="1015" y="385" width="16" height="40" rx="4" fill="#64748b"/>

  <text x="60" y="340" fill="#0f172a" font-size="26" font-family="Arial, sans-serif" font-weight="700">Fast Shipping  |  Secure Checkout  |  Genuine Parts</text>
  <text x="60" y="390" fill="#334155" font-size="22" font-family="Arial, sans-serif">craudyaudios@gmail.com</text>
</svg>
