<svg width="1200" height="500" viewBox="0 0 1200 500" fill="none" xmlns="http://www.w3.org/2000/svg">
  <defs>
    <linearGradient id="bg" x1="0" y1="0" x2="1200" y2="500" gradientUnits="userSpaceOnUse">
      <stop offset="0" stop-color="#0b1220"/>
      <stop offset="1" stop-color="#1f2937"/>
    </linearGradient>
    <linearGradient id="accent" x1="0" y1="0" x2="1" y2="1">
      <stop offset="0" stop-color="#fb923c"/>
      <stop offset="1" stop-color="#f97316"/>
    </linearGradient>
  </defs>
  <rect width="1200" height="500" rx="24" fill="url(#bg)"/>
  <circle cx="1020" cy="90" r="160" fill="#111827" opacity="0.55"/>
  <circle cx="980" cy="450" r="220" fill="#111827" opacity="0.65"/>

  <text x="60" y="110" fill="#f8fafc" font-size="56" font-family="Arial, sans-serif" font-weight="700">CRAZY AUDIOS</text>
  <text x="60" y="165" fill="#cbd5e1" font-size="30" font-family="Arial, sans-serif">Premium Electronic Components</text>
  <text x="60" y="215" fill="#94a3b8" font-size="24" font-family="Arial, sans-serif">Amplifiers, ICs, Transistors, Diodes, Speakers</text>

  <rect x="60" y="270" width="290" height="80" rx="14" fill="url(#accent)"/>
  <text x="105" y="322" fill="#111827" font-size="34" font-family="Arial, sans-serif" font-weight="700">Shop Now</text>

  <rect x="640" y="170" width="220" height="150" rx="12" fill="#0f172a" stroke="#334155" stroke-width="4"/>
  <circle cx="690" cy="245" r="22" fill="#fb923c"/>
  <circle cx="755" cy="245" r="22" fill="#fb923c"/>
  <circle cx="820" cy="245" r="22" fill="#fb923c"/>
  <rect x="680" y="292" width="140" height="14" rx="7" fill="#475569"/>

  <rect x="900" y="140" width="140" height="210" rx="12" fill="#111827" stroke="#475569" stroke-width="4"/>
  <rect x="930" y="170" width="80" height="95" rx="8" fill="#1e293b"/>
  <rect x="935" y="355" width="10" height="45" rx="4" fill="#94a3b8"/>
  <rect x="960" y="355" width="10" height="45" rx="4" fill="#94a3b8"/>
  <rect x="985" y="355" width="10" height="45" rx="4" fill="#94a3b8"/>
</svg>
