<svg width="1600" height="320" viewBox="0 0 1600 320" fill="none" xmlns="http://www.w3.org/2000/svg">
  <defs>
    <linearGradient id="bg" x1="0" y1="0" x2="1600" y2="320" gradientUnits="userSpaceOnUse">
      <stop offset="0" stop-color="#0f172a"/>
      <stop offset="0.48" stop-color="#1d4ed8"/>
      <stop offset="1" stop-color="#8b5cf6"/>
    </linearGradient>
    <linearGradient id="pill" x1="0" y1="0" x2="1" y2="1">
      <stop offset="0" stop-color="#22d3ee"/>
      <stop offset="1" stop-color="#2dd4bf"/>
    </linearGradient>
  </defs>

  <rect width="1600" height="320" rx="26" fill="url(#bg)"/>
  <circle cx="1380" cy="58" r="120" fill="#ffffff" opacity="0.08"/>
  <circle cx="1500" cy="284" r="140" fill="#ffffff" opacity="0.08"/>

  <text x="72" y="84" fill="#f8fafc" font-size="52" font-family="Arial, sans-serif" font-weight="800">PEERLESS STORE</text>
  <text x="72" y="130" fill="#dbeafe" font-size="40" font-family="Arial, sans-serif" font-weight="700">Audio Products</text>
  <text x="72" y="172" fill="#e2e8f0" font-size="22" font-family="Arial, sans-serif">Woofers • Tweeters • Full Range • Pro Audio Drivers</text>
  <text x="72" y="206" fill="#cbd5e1" font-size="18" font-family="Arial, sans-serif">High-performance components for clean, powerful sound builds</text>

  <rect x="72" y="230" width="255" height="46" rx="12" fill="#f59e0b"/>
  <text x="128" y="261" fill="#111827" font-size="34" font-family="Arial, sans-serif" font-weight="800">Shop Now</text>

  <rect x="980" y="28" width="240" height="42" rx="21" fill="url(#pill)"/>
  <text x="1035" y="57" fill="#083344" font-size="22" font-family="Arial, sans-serif" font-weight="700">New Arrivals</text>

  <rect x="980" y="84" width="220" height="210" rx="20" fill="#0b1636" stroke="#38bdf8" stroke-width="5"/>
  <circle cx="1090" cy="136" r="40" fill="#0b1636" stroke="#38bdf8" stroke-width="6"/>
  <circle cx="1090" cy="136" r="14" fill="#22d3ee"/>
  <circle cx="1090" cy="238" r="32" fill="#0b1636" stroke="#38bdf8" stroke-width="6"/>
  <circle cx="1090" cy="238" r="10" fill="#22d3ee"/>

  <rect x="1260" y="96" width="230" height="198" rx="20" fill="#0b1636" stroke="#f59e0b" stroke-width="5"/>
  <circle cx="1375" cy="142" r="34" fill="#0b1636" stroke="#f59e0b" stroke-width="6"/>
  <circle cx="1375" cy="142" r="12" fill="#fb923c"/>
  <circle cx="1375" cy="226" r="26" fill="#0b1636" stroke="#f59e0b" stroke-width="6"/>
  <circle cx="1375" cy="226" r="9" fill="#fb923c"/>
</svg>
